# xmcd
#
# Track frame offsets: 
#        150
#        14598
#        34475
#        50663
#        67325
#        92343
#        104025
#        122930
#        140813
#        159795
#        177145
#        194888
#
# Disc length: 2992 seconds
#
# Revision: 4
# Processed by: cddbd v1.5.2PL0 Copyright (c) Steve Scherf et al.
# Submitted via: ExactAudioCopy v1.1
#
DISCID=ba0bae0c
DTITLE=Sergio Caputo - Ne Approfitto Per Fare Un Po' Di Musica (Live)
DYEAR=1987
DGENRE=Swing
TTITLE0=Il Garibaldi Innamorato
TTITLE1=L'Astronave Che Arriva
TTITLE2=Trio Vocale Militare
TTITLE3=T'Ho Incontrata Domani
TTITLE4=Spicchio Di Luna
TTITLE5=Vado Alle Hawaii
TTITLE6=Hemingway Caffè Latino
TTITLE7=Un Sabato Italiano
TTITLE8=Mercy Bocù
TTITLE9=La Jena Si E' Svegliata
TTITLE10=Bimba Se Sapessi
TTITLE11=Italiani Mambo
EXTD=
EXTT0=
EXTT1=
EXTT2=
EXTT3=
EXTT4=
EXTT5=
EXTT6=
EXTT7=
EXTT8=
EXTT9=
EXTT10=
EXTT11=
PLAYORDER=
